<svg xmlns="http://www.w3.org/2000/svg" width="472" height="160" viewBox="-16 -16 472 160" fill="none" role="img" aria-label="CVBench">
  <rect x="-16" y="-16" width="472" height="160" rx="20" fill="#fff"/>
  <defs>
    <linearGradient id="bg" x1="0" y1="0" x2="128" y2="128" gradientUnits="userSpaceOnUse">
      <stop offset="0" stop-color="#818cf8"/>
      <stop offset="1" stop-color="#4f46e5"/>
    </linearGradient>
  </defs>
  <rect width="128" height="128" rx="28" fill="url(#bg)"/>
  <!-- detection bounding-box corners -->
  <g stroke="#fff" stroke-width="6" stroke-linecap="round" stroke-linejoin="round">
    <path d="M22 42 V30 a8 8 0 0 1 8-8 H42"/>
    <path d="M86 22 H98 a8 8 0 0 1 8 8 V42"/>
    <path d="M106 86 V98 a8 8 0 0 1-8 8 H86"/>
    <path d="M42 106 H30 a8 8 0 0 1-8-8 V86"/>
  </g>
  <!-- eye -->
  <path d="M30 64 Q64 34 98 64 Q64 94 30 64 Z" stroke="#fff" stroke-width="5" stroke-linejoin="round"/>
  <!-- pixelated iris -->
  <g fill="#fff">
    
<rect x="55.5" y="49.0" width="5" height="5" rx="1" opacity="0.6"/>    <rect x="61.5" y="49.0" width="5" height="5" rx="1" opacity="0.6"/>    <rect x="67.5" y="49.0" width="5" height="5" rx="1" opacity="0.6"/>    <rect x="49.5" y="55.0" width="5" height="5" rx="1" opacity="0.6"/>    <rect x="55.5" y="55.0" width="5" height="5" rx="1" opacity="1"/>    <rect x="61.5" y="55.0" width="5" height="5" rx="1" opacity="1"/>    <rect x="67.5" y="55.0" width="5" height="5" rx="1" opacity="1"/>    <rect x="73.5" y="55.0" width="5" height="5" rx="1" opacity="0.6"/>    <rect x="49.5" y="61.0" width="5" height="5" rx="1" opacity="0.6"/>    <rect x="55.5" y="61.0" width="5" height="5" rx="1" opacity="1"/>    <rect x="67.5" y="61.0" width="5" height="5" rx="1" opacity="1"/>    <rect x="73.5" y="61.0" width="5" height="5" rx="1" opacity="0.6"/>    <rect x="49.5" y="67.0" width="5" height="5" rx="1" opacity="0.6"/>    <rect x="55.5" y="67.0" width="5" height="5" rx="1" opacity="1"/>    <rect x="61.5" y="67.0" width="5" height="5" rx="1" opacity="1"/>    <rect x="67.5" y="67.0" width="5" height="5" rx="1" opacity="1"/>    <rect x="73.5" y="67.0" width="5" height="5" rx="1" opacity="0.6"/>    <rect x="55.5" y="73.0" width="5" height="5" rx="1" opacity="0.6"/>    <rect x="61.5" y="73.0" width="5" height="5" rx="1" opacity="0.6"/>    <rect x="67.5" y="73.0" width="5" height="5" rx="1" opacity="0.6"/>
  </g>
  <rect x="61.5" y="61" width="5" height="5" rx="1" fill="#4f46e5"/>
  <text x="152" y="82" font-family="Inter, 'Segoe UI', Helvetica, Arial, sans-serif" font-size="60" font-weight="800" letter-spacing="-1.5"><tspan fill="#4f46e5">CV</tspan><tspan fill="#1e1b4b" font-weight="600">Bench</tspan></text>
</svg>
